  0
SECTION
  2
HEADER
  9
$ACADVER
  1
AC1014
  9
$HANDSEED
  5
FFFF
  9
$INSUNITS
 70
     4
  9
$MEASUREMENT
 70
     1
  0
ENDSEC
  0
SECTION
  2
TABLES
  0
TABLE
  2
VPORT
  5
8
330
0
100
AcDbSymbolTable
 70
     4
  0
VPORT
  5
2E
330
8
100
AcDbSymbolTableRecord
100
AcDbViewportTableRecord
  2
*ACTIVE
 70
     0
 10
0.0
 20
0.0
 11
1.0
 21
1.0
 12
210.0
 22
148.5
 13
0.0
 23
0.0
 14
10.0
 24
10.0
 15
10.0
 25
10.0
 16
0.0
 26
0.0
 36
1.0
 17
0.0
 27
0.0
 37
0.0
 40
341.0
 41
1.24
 42
50.0
 43
0.0
 44
0.0
 50
0.0
 51
0.0
 71
     0
 72
   100
 73
     1
 74
     3
 75
     0
 76
     0
 77
     0
 78
     0
  0
ENDTAB
  0
TABLE
  2
LTYPE
  5
5
330
0
100
AcDbSymbolTable
 70
     1
  0
LTYPE
  5
14
330
5
100
AcDbSymbolTableRecord
100
AcDbLinetypeTableRecord
  2
BYBLOCK
 70
     0
  3

 72
    65
 73
     0
 40
0.0
  0
LTYPE
  5
15
330
5
100
AcDbSymbolTableRecord
100
AcDbLinetypeTableRecord
  2
BYLAYER
 70
     0
  3

 72
    65
 73
     0
 40
0.0
  0
LTYPE
  5
16
330
5
100
AcDbSymbolTableRecord
100
AcDbLinetypeTableRecord
  2
CONTINUOUS
 70
     0
  3
Solid line
 72
    65
 73
     0
 40
0.0
  0
ENDTAB
  0
TABLE
  2
LAYER
  5
2
100
AcDbSymbolTable
 70
2
  0
LAYER
  5
50
100
AcDbSymbolTableRecord
100
AcDbLayerTableRecord
  2
0
 70
0
  6
CONTINUOUS
  0
LAYER
  5
51
100
AcDbSymbolTableRecord
100
AcDbLayerTableRecord
  2
Layer_1
 70
0
  6
CONTINUOUS
  0
ENDTAB
  0
TABLE
  2
STYLE
  5
3
330
0
100
AcDbSymbolTable
 70
     1
  0
STYLE
  5
11
330
3
100
AcDbSymbolTableRecord
100
AcDbTextStyleTableRecord
  2
STANDARD
 70
     0
 40
0.0
 41
1.0
 50
0.0
 71
     0
 42
2.5
  3
txt
  4

  0
ENDTAB
  0
TABLE
  2
VIEW
  5
6
330
0
100
AcDbSymbolTable
 70
     0
  0
ENDTAB
  0
TABLE
  2
UCS
  5
7
330
0
100
AcDbSymbolTable
 70
     0
  0
ENDTAB
  0
TABLE
  2
APPID
  5
9
330
0
100
AcDbSymbolTable
 70
     2
  0
APPID
  5
12
330
9
100
AcDbSymbolTableRecord
100
AcDbRegAppTableRecord
  2
ACAD
 70
     0
  0
ENDTAB
  0
TABLE
  2
DIMSTYLE
  5
A
330
0
100
AcDbSymbolTable
 70
     1
  0
DIMSTYLE
105
27
330
A
100
AcDbSymbolTableRecord
100
AcDbDimStyleTableRecord
  2
ISO-25
 70
     0
  3

  4

  5

  6

  7

 40
1.0
 41
2.5
 42
0.625
 43
3.75
 44
1.25
 45
0.0
 46
0.0
 47
0.0
 48
0.0
140
2.5
141
2.5
142
0.0
143
0.03937007874016
144
1.0
145
0.0
146
1.0
147
0.625
 71
     0
 72
     0
 73
     0
 74
     0
 75
     0
 76
     0
 77
     1
 78
     8
170
     0
171
     3
172
     1
173
     0
174
     0
175
     0
176
     0
177
     0
178
     0
270
     2
271
     2
272
     2
273
     2
274
     3
340
11
275
     0
280
     0
281
     0
282
     0
283
     0
284
     8
285
     0
286
     0
287
     3
288
     0
  0
ENDTAB
  0
TABLE
  2
BLOCK_RECORD
  5
1
330
0
100
AcDbSymbolTable
 70
     1
  0
BLOCK_RECORD
  5
1F
330
1
100
AcDbSymbolTableRecord
100
AcDbBlockTableRecord
  2
*MODEL_SPACE
  0
BLOCK_RECORD
  5
1B
330
1
100
AcDbSymbolTableRecord
100
AcDbBlockTableRecord
  2
*PAPER_SPACE
  0
ENDTAB
  0
ENDSEC
  0
SECTION
  2
BLOCKS
  0
BLOCK
  5
20
330
1F
100
AcDbEntity
  8
0
100
AcDbBlockBegin
  2
*MODEL_SPACE
 70
     0
 10
0.0
 20
0.0
 30
0.0
  3
*MODEL_SPACE
  1

  0
ENDBLK
  5
21
330
1F
100
AcDbEntity
  8
0
100
AcDbBlockEnd
  0
BLOCK
  5
1C
330
1B
100
AcDbEntity
 67
     1
  8
0
100
AcDbBlockBegin
  2
*PAPER_SPACE
  1

  0
ENDBLK
  5
1D
330
1B
100
AcDbEntity
 67
     1
  8
0
100
AcDbBlockEnd
  0
ENDSEC
  0
SECTION
  2
ENTITIES
  0
LINE
  5
100
100
AcDbEntity
  8
Layer_1
 62
7
100
AcDbLine
 10
-1.756500
 20
230.782250
 30
0.0
 11
92.493500
 21
230.782250
 31
0.0
  0
SPLINE
  5
101
100
AcDbEntity
  8
Layer_1
 62
7
100
AcDbSpline
 70
8
 71
3
 72
8
 73
4
 74
0
 40
0
 40
0
 40
0
 40
0
 40
1
 40
1
 40
1
 40
1
 10
92.493500
 20
230.782250
 30
0.0
 10
93.045765
 20
230.782250
 30
0.0
 10
93.493472
 20
230.334565
 30
0.0
 10
93.493500
 20
229.782300
 30
0.0
  0
LINE
  5
102
100
AcDbEntity
  8
Layer_1
 62
7
100
AcDbLine
 10
93.493500
 20
229.782300
 30
0.0
 11
93.493500
 21
173.632250
 31
0.0
  0
SPLINE
  5
103
100
AcDbEntity
  8
Layer_1
 62
7
100
AcDbSpline
 70
8
 71
3
 72
8
 73
4
 74
0
 40
0
 40
0
 40
0
 40
0
 40
1
 40
1
 40
1
 40
1
 10
93.493500
 20
173.632250
 30
0.0
 10
93.493513
 20
173.367025
 30
0.0
 10
93.388162
 20
173.112658
 30
0.0
 10
93.200624
 20
172.925111
 30
0.0
  0
SPLINE
  5
104
100
AcDbEntity
  8
Layer_1
 62
7
100
AcDbSpline
 70
8
 71
3
 72
8
 73
4
 74
0
 40
0
 40
0
 40
0
 40
0
 40
1
 40
1
 40
1
 40
1
 10
93.200624
 20
172.925111
 30
0.0
 10
93.013087
 20
172.737564
 30
0.0
 10
92.758725
 20
172.632200
 30
0.0
 10
92.493500
 20
172.632200
 30
0.0
  0
LINE
  5
105
100
AcDbEntity
  8
Layer_1
 62
7
100
AcDbLine
 10
92.493500
 20
172.632200
 30
0.0
 11
37.343500
 21
172.632250
 31
0.0
  0
SPLINE
  5
106
100
AcDbEntity
  8
Layer_1
 62
7
100
AcDbSpline
 70
8
 71
3
 72
8
 73
4
 74
0
 40
0
 40
0
 40
0
 40
0
 40
1
 40
1
 40
1
 40
1
 10
37.343500
 20
172.632250
 30
0.0
 10
36.791235
 20
172.632250
 30
0.0
 10
36.343528
 20
172.184565
 30
0.0
 10
36.343500
 20
171.632300
 30
0.0
  0
LINE
  5
107
100
AcDbEntity
  8
Layer_1
 62
7
100
AcDbLine
 10
36.343500
 20
171.632300
 30
0.0
 11
36.343500
 21
154.582250
 31
0.0
  0
SPLINE
  5
108
100
AcDbEntity
  8
Layer_1
 62
7
100
AcDbSpline
 70
8
 71
3
 72
8
 73
4
 74
0
 40
0
 40
0
 40
0
 40
0
 40
1
 40
1
 40
1
 40
1
 10
36.343500
 20
154.582250
 30
0.0
 10
36.343513
 20
154.317025
 30
0.0
 10
36.238162
 20
154.062658
 30
0.0
 10
36.050624
 20
153.875111
 30
0.0
  0
SPLINE
  5
109
100
AcDbEntity
  8
Layer_1
 62
7
100
AcDbSpline
 70
8
 71
3
 72
8
 73
4
 74
0
 40
0
 40
0
 40
0
 40
0
 40
1
 40
1
 40
1
 40
1
 10
36.050624
 20
153.875111
 30
0.0
 10
35.863087
 20
153.687564
 30
0.0
 10
35.608725
 20
153.582200
 30
0.0
 10
35.343500
 20
153.582200
 30
0.0
  0
LINE
  5
10a
100
AcDbEntity
  8
Layer_1
 62
7
100
AcDbLine
 10
35.343500
 20
153.582200
 30
0.0
 11
-1.756500
 21
153.582250
 31
0.0
  0
SPLINE
  5
10b
100
AcDbEntity
  8
Layer_1
 62
7
100
AcDbSpline
 70
8
 71
3
 72
8
 73
4
 74
0
 40
0
 40
0
 40
0
 40
0
 40
1
 40
1
 40
1
 40
1
 10
-1.756500
 20
153.582250
 30
0.0
 10
-2.021794
 20
153.582117
 30
0.0
 10
-2.276269
 20
153.687409
 30
0.0
 10
-2.463912
 20
153.874949
 30
0.0
  0
SPLINE
  5
10c
100
AcDbEntity
  8
Layer_1
 62
7
100
AcDbSpline
 70
8
 71
3
 72
8
 73
4
 74
0
 40
0
 40
0
 40
0
 40
0
 40
1
 40
1
 40
1
 40
1
 10
-2.463912
 20
153.874949
 30
0.0
 10
-2.651555
 20
154.062489
 30
0.0
 10
-2.756987
 20
154.316906
 30
0.0
 10
-2.757000
 20
154.582200
 30
0.0
  0
LINE
  5
10d
100
AcDbEntity
  8
Layer_1
 62
7
100
AcDbLine
 10
-2.757000
 20
154.582200
 30
0.0
 11
-2.756500
 21
229.782250
 31
0.0
  0
SPLINE
  5
10e
100
AcDbEntity
  8
Layer_1
 62
7
100
AcDbSpline
 70
8
 71
3
 72
8
 73
4
 74
0
 40
0
 40
0
 40
0
 40
0
 40
1
 40
1
 40
1
 40
1
 10
-2.756500
 20
229.782250
 30
0.0
 10
-2.756513
 20
230.047475
 30
0.0
 10
-2.651162
 20
230.301842
 30
0.0
 10
-2.463624
 20
230.489389
 30
0.0
  0
SPLINE
  5
10f
100
AcDbEntity
  8
Layer_1
 62
7
100
AcDbSpline
 70
8
 71
3
 72
8
 73
4
 74
0
 40
0
 40
0
 40
0
 40
0
 40
1
 40
1
 40
1
 40
1
 10
-2.463624
 20
230.489389
 30
0.0
 10
-2.276087
 20
230.676936
 30
0.0
 10
-2.021725
 20
230.782300
 30
0.0
 10
-1.756500
 20
230.782300
 30
0.0
  0
LINE
  5
110
100
AcDbEntity
  8
Layer_1
 62
7
100
AcDbLine
 10
-8.281500
 20
234.444750
 30
0.0
 11
203.793500
 21
234.444750
 31
0.0
  0
SPLINE
  5
111
100
AcDbEntity
  8
Layer_1
 62
7
100
AcDbSpline
 70
8
 71
3
 72
8
 73
4
 74
0
 40
0
 40
0
 40
0
 40
0
 40
1
 40
1
 40
1
 40
1
 10
203.793500
 20
234.444750
 30
0.0
 10
204.562706
 20
234.444883
 30
0.0
 10
205.300453
 20
234.139413
 30
0.0
 10
205.844415
 20
233.595554
 30
0.0
  0
SPLINE
  5
112
100
AcDbEntity
  8
Layer_1
 62
7
100
AcDbSpline
 70
8
 71
3
 72
8
 73
4
 74
0
 40
0
 40
0
 40
0
 40
0
 40
1
 40
1
 40
1
 40
1
 10
205.844415
 20
233.595554
 30
0.0
 10
206.388377
 20
233.051695
 30
0.0
 10
206.693987
 20
232.314006
 30
0.0
 10
206.694000
 20
231.544800
 30
0.0
  0
LINE
  5
113
100
AcDbEntity
  8
Layer_1
 62
7
100
AcDbLine
 10
206.694000
 20
231.544800
 30
0.0
 11
206.693500
 21
148.057250
 31
0.0
  0
SPLINE
  5
114
100
AcDbEntity
  8
Layer_1
 62
7
100
AcDbSpline
 70
8
 71
3
 72
8
 73
4
 74
0
 40
0
 40
0
 40
0
 40
0
 40
1
 40
1
 40
1
 40
1
 10
206.693500
 20
148.057250
 30
0.0
 10
206.693472
 20
146.455839
 30
0.0
 10
205.395411
 20
145.157576
 30
0.0
 10
203.794000
 20
145.157300
 30
0.0
  0
LINE
  5
115
100
AcDbEntity
  8
Layer_1
 62
7
100
AcDbLine
 10
203.794000
 20
145.157300
 30
0.0
 11
-8.281500
 21
145.157250
 31
0.0
  0
SPLINE
  5
116
100
AcDbEntity
  8
Layer_1
 62
7
100
AcDbSpline
 70
8
 71
3
 72
8
 73
4
 74
0
 40
0
 40
0
 40
0
 40
0
 40
1
 40
1
 40
1
 40
1
 10
-8.281500
 20
145.157250
 30
0.0
 10
-9.050706
 20
145.157117
 30
0.0
 10
-9.788453
 20
145.462587
 30
0.0
 10
-10.332415
 20
146.006446
 30
0.0
  0
SPLINE
  5
117
100
AcDbEntity
  8
Layer_1
 62
7
100
AcDbSpline
 70
8
 71
3
 72
8
 73
4
 74
0
 40
0
 40
0
 40
0
 40
0
 40
1
 40
1
 40
1
 40
1
 10
-10.332415
 20
146.006446
 30
0.0
 10
-10.876377
 20
146.550305
 30
0.0
 10
-11.181987
 20
147.287994
 30
0.0
 10
-11.182000
 20
148.057200
 30
0.0
  0
LINE
  5
118
100
AcDbEntity
  8
Layer_1
 62
7
100
AcDbLine
 10
-11.182000
 20
148.057200
 30
0.0
 11
-11.181500
 21
231.544750
 31
0.0
  0
SPLINE
  5
119
100
AcDbEntity
  8
Layer_1
 62
7
100
AcDbSpline
 70
8
 71
3
 72
8
 73
4
 74
0
 40
0
 40
0
 40
0
 40
0
 40
1
 40
1
 40
1
 40
1
 10
-11.181500
 20
231.544750
 30
0.0
 10
-11.181528
 20
233.146200
 30
0.0
 10
-9.883450
 20
234.444524
 30
0.0
 10
-8.282000
 20
234.444800
 30
0.0
  0
LINE
  5
11a
100
AcDbEntity
  8
Layer_1
 62
7
100
AcDbLine
 10
160.168500
 20
153.582250
 30
0.0
 11
197.268500
 21
153.582250
 31
0.0
  0
SPLINE
  5
11b
100
AcDbEntity
  8
Layer_1
 62
7
100
AcDbSpline
 70
8
 71
3
 72
8
 73
4
 74
0
 40
0
 40
0
 40
0
 40
0
 40
1
 40
1
 40
1
 40
1
 10
197.268500
 20
153.582250
 30
0.0
 10
197.533794
 20
153.582117
 30
0.0
 10
197.788269
 20
153.687409
 30
0.0
 10
197.975912
 20
153.874949
 30
0.0
  0
SPLINE
  5
11c
100
AcDbEntity
  8
Layer_1
 62
7
100
AcDbSpline
 70
8
 71
3
 72
8
 73
4
 74
0
 40
0
 40
0
 40
0
 40
0
 40
1
 40
1
 40
1
 40
1
 10
197.975912
 20
153.874949
 30
0.0
 10
198.163555
 20
154.062489
 30
0.0
 10
198.268987
 20
154.316906
 30
0.0
 10
198.269000
 20
154.582200
 30
0.0
  0
LINE
  5
11d
100
AcDbEntity
  8
Layer_1
 62
7
100
AcDbLine
 10
198.269000
 20
154.582200
 30
0.0
 11
198.268500
 21
229.782250
 31
0.0
  0
SPLINE
  5
11e
100
AcDbEntity
  8
Layer_1
 62
7
100
AcDbSpline
 70
8
 71
3
 72
8
 73
4
 74
0
 40
0
 40
0
 40
0
 40
0
 40
1
 40
1
 40
1
 40
1
 10
198.268500
 20
229.782250
 30
0.0
 10
198.268513
 20
230.047475
 30
0.0
 10
198.163162
 20
230.301842
 30
0.0
 10
197.975624
 20
230.489389
 30
0.0
  0
SPLINE
  5
11f
100
AcDbEntity
  8
Layer_1
 62
7
100
AcDbSpline
 70
8
 71
3
 72
8
 73
4
 74
0
 40
0
 40
0
 40
0
 40
0
 40
1
 40
1
 40
1
 40
1
 10
197.975624
 20
230.489389
 30
0.0
 10
197.788087
 20
230.676936
 30
0.0
 10
197.533725
 20
230.782300
 30
0.0
 10
197.268500
 20
230.782300
 30
0.0
  0
LINE
  5
120
100
AcDbEntity
  8
Layer_1
 62
7
100
AcDbLine
 10
197.268500
 20
230.782300
 30
0.0
 11
103.018500
 21
230.782250
 31
0.0
  0
SPLINE
  5
121
100
AcDbEntity
  8
Layer_1
 62
7
100
AcDbSpline
 70
8
 71
3
 72
8
 73
4
 74
0
 40
0
 40
0
 40
0
 40
0
 40
1
 40
1
 40
1
 40
1
 10
103.018500
 20
230.782250
 30
0.0
 10
102.466235
 20
230.782250
 30
0.0
 10
102.018528
 20
230.334565
 30
0.0
 10
102.018500
 20
229.782300
 30
0.0
  0
LINE
  5
122
100
AcDbEntity
  8
Layer_1
 62
7
100
AcDbLine
 10
102.018500
 20
229.782300
 30
0.0
 11
102.018500
 21
173.632250
 31
0.0
  0
SPLINE
  5
123
100
AcDbEntity
  8
Layer_1
 62
7
100
AcDbSpline
 70
8
 71
3
 72
8
 73
4
 74
0
 40
0
 40
0
 40
0
 40
0
 40
1
 40
1
 40
1
 40
1
 10
102.018500
 20
173.632250
 30
0.0
 10
102.018487
 20
173.367025
 30
0.0
 10
102.123838
 20
173.112658
 30
0.0
 10
102.311376
 20
172.925111
 30
0.0
  0
SPLINE
  5
124
100
AcDbEntity
  8
Layer_1
 62
7
100
AcDbSpline
 70
8
 71
3
 72
8
 73
4
 74
0
 40
0
 40
0
 40
0
 40
0
 40
1
 40
1
 40
1
 40
1
 10
102.311376
 20
172.925111
 30
0.0
 10
102.498913
 20
172.737564
 30
0.0
 10
102.753275
 20
172.632200
 30
0.0
 10
103.018500
 20
172.632200
 30
0.0
  0
LINE
  5
125
100
AcDbEntity
  8
Layer_1
 62
7
100
AcDbLine
 10
103.018500
 20
172.632200
 30
0.0
 11
158.168500
 21
172.632250
 31
0.0
  0
SPLINE
  5
126
100
AcDbEntity
  8
Layer_1
 62
7
100
AcDbSpline
 70
8
 71
3
 72
8
 73
4
 74
0
 40
0
 40
0
 40
0
 40
0
 40
1
 40
1
 40
1
 40
1
 10
158.168500
 20
172.632250
 30
0.0
 10
158.720765
 20
172.632250
 30
0.0
 10
159.168472
 20
172.184565
 30
0.0
 10
159.168500
 20
171.632300
 30
0.0
  0
LINE
  5
127
100
AcDbEntity
  8
Layer_1
 62
7
100
AcDbLine
 10
159.168500
 20
171.632300
 30
0.0
 11
159.168500
 21
154.582250
 31
0.0
  0
SPLINE
  5
128
100
AcDbEntity
  8
Layer_1
 62
7
100
AcDbSpline
 70
8
 71
3
 72
8
 73
4
 74
0
 40
0
 40
0
 40
0
 40
0
 40
1
 40
1
 40
1
 40
1
 10
159.168500
 20
154.582250
 30
0.0
 10
159.168487
 20
154.317025
 30
0.0
 10
159.273838
 20
154.062658
 30
0.0
 10
159.461376
 20
153.875111
 30
0.0
  0
SPLINE
  5
129
100
AcDbEntity
  8
Layer_1
 62
7
100
AcDbSpline
 70
8
 71
3
 72
8
 73
4
 74
0
 40
0
 40
0
 40
0
 40
0
 40
1
 40
1
 40
1
 40
1
 10
159.461376
 20
153.875111
 30
0.0
 10
159.648913
 20
153.687564
 30
0.0
 10
159.903275
 20
153.582200
 30
0.0
 10
160.168500
 20
153.582200
 30
0.0
  0
LINE
  5
12a
100
AcDbEntity
  8
Layer_1
 62
7
100
AcDbLine
 10
40.106000
 20
167.869750
 30
0.0
 11
40.106000
 21
149.819750
 31
0.0
  0
SPLINE
  5
12b
100
AcDbEntity
  8
Layer_1
 62
7
100
AcDbSpline
 70
8
 71
3
 72
8
 73
4
 74
0
 40
0
 40
0
 40
0
 40
0
 40
1
 40
1
 40
1
 40
1
 10
40.106000
 20
149.819750
 30
0.0
 10
40.105987
 20
149.554525
 30
0.0
 10
40.211338
 20
149.300158
 30
0.0
 10
40.398876
 20
149.112611
 30
0.0
  0
SPLINE
  5
12c
100
AcDbEntity
  8
Layer_1
 62
7
100
AcDbSpline
 70
8
 71
3
 72
8
 73
4
 74
0
 40
0
 40
0
 40
0
 40
0
 40
1
 40
1
 40
1
 40
1
 10
40.398876
 20
149.112611
 30
0.0
 10
40.586413
 20
148.925064
 30
0.0
 10
40.840775
 20
148.819700
 30
0.0
 10
41.106000
 20
148.819700
 30
0.0
  0
LINE
  5
12d
100
AcDbEntity
  8
Layer_1
 62
7
100
AcDbLine
 10
41.106000
 20
148.819700
 30
0.0
 11
154.406000
 21
148.819750
 31
0.0
  0
SPLINE
  5
12e
100
AcDbEntity
  8
Layer_1
 62
7
100
AcDbSpline
 70
8
 71
3
 72
8
 73
4
 74
0
 40
0
 40
0
 40
0
 40
0
 40
1
 40
1
 40
1
 40
1
 10
154.406000
 20
148.819750
 30
0.0
 10
154.958265
 20
148.819750
 30
0.0
 10
155.405972
 20
149.267435
 30
0.0
 10
155.406000
 20
149.819700
 30
0.0
  0
LINE
  5
12f
100
AcDbEntity
  8
Layer_1
 62
7
100
AcDbLine
 10
155.406000
 20
149.819700
 30
0.0
 11
155.406000
 21
167.869750
 31
0.0
  0
SPLINE
  5
130
100
AcDbEntity
  8
Layer_1
 62
7
100
AcDbSpline
 70
8
 71
3
 72
8
 73
4
 74
0
 40
0
 40
0
 40
0
 40
0
 40
1
 40
1
 40
1
 40
1
 10
155.406000
 20
167.869750
 30
0.0
 10
155.405972
 20
168.422015
 30
0.0
 10
154.958265
 20
168.869700
 30
0.0
 10
154.406000
 20
168.869700
 30
0.0
  0
LINE
  5
131
100
AcDbEntity
  8
Layer_1
 62
7
100
AcDbLine
 10
154.406000
 20
168.869700
 30
0.0
 11
41.106000
 21
168.869750
 31
0.0
  0
SPLINE
  5
132
100
AcDbEntity
  8
Layer_1
 62
7
100
AcDbSpline
 70
8
 71
3
 72
8
 73
4
 74
0
 40
0
 40
0
 40
0
 40
0
 40
1
 40
1
 40
1
 40
1
 10
41.106000
 20
168.869750
 30
0.0
 10
40.840775
 20
168.869750
 30
0.0
 10
40.586413
 20
168.764386
 30
0.0
 10
40.398876
 20
168.576839
 30
0.0
  0
SPLINE
  5
133
100
AcDbEntity
  8
Layer_1
 62
7
100
AcDbSpline
 70
8
 71
3
 72
8
 73
4
 74
0
 40
0
 40
0
 40
0
 40
0
 40
1
 40
1
 40
1
 40
1
 10
40.398876
 20
168.576839
 30
0.0
 10
40.211338
 20
168.389292
 30
0.0
 10
40.105987
 20
168.134925
 30
0.0
 10
40.106000
 20
167.869700
 30
0.0
  0
ENDSEC
  0
SECTION
  2
OBJECTS
  0
DICTIONARY
  5
C
330
0
100
AcDbDictionary
  3
ACAD_GROUP
350
D
  3
ACAD_MLINESTYLE
350
17
  0
DICTIONARY
  5
D
330
C
100
AcDbDictionary
  0
DICTIONARY
  5
1A
330
C
100
AcDbDictionary
  0
DICTIONARY
  5
17
330
C
100
AcDbDictionary
  3
STANDARD
350
18
  0
DICTIONARY
  5
19
330
C
100
AcDbDictionary
  0
ENDSEC
  0
EOF
